<?xml version="1.0" encoding="UTF-8" standalone="no"?>
<svg
   xmlns:dc="http://purl.org/dc/elements/1.1/"
   xmlns:cc="http://creativecommons.org/ns#"
   xmlns:rdf="http://www.w3.org/1999/02/22-rdf-syntax-ns#"
   xmlns:svg="http://www.w3.org/2000/svg"
   xmlns="http://www.w3.org/2000/svg"
   xmlns:sodipodi="http://sodipodi.sourceforge.net/DTD/sodipodi-0.dtd"
   xmlns:inkscape="http://www.inkscape.org/namespaces/inkscape"
   width="500"
   height="400"
   viewBox="0 0 132.29167 105.83333"
   version="1.1"
   id="svg8"
   inkscape:version="1.0.1 (c497b03c, 2020-09-10)"
   sodipodi:docname="ui.svg">
  <defs
     id="defs2">
    <filter
       inkscape:collect="always"
       style="color-interpolation-filters:sRGB"
       id="filter2991"
       x="-0.13300959"
       width="1.2660192"
       y="-0.33718575"
       height="1.6743715">
      <feGaussianBlur
         inkscape:collect="always"
         stdDeviation="0.66358927"
         id="feGaussianBlur2993" />
    </filter>
  </defs>
  <sodipodi:namedview
     id="base"
     pagecolor="#ffffff"
     bordercolor="#666666"
     borderopacity="1.0"
     inkscape:pageopacity="0.0"
     inkscape:pageshadow="2"
     inkscape:zoom="1.4142136"
     inkscape:cx="289.69823"
     inkscape:cy="142.40953"
     inkscape:document-units="px"
     inkscape:current-layer="layer2"
     inkscape:document-rotation="0"
     showgrid="false"
     units="px"
     showguides="true"
     inkscape:guide-bbox="true"
     inkscape:window-width="1554"
     inkscape:window-height="1174"
     inkscape:window-x="287"
     inkscape:window-y="54"
     inkscape:window-maximized="0">
    <sodipodi:guide
       position="0,105.83333"
       orientation="0,500"
       id="guide838" />
    <sodipodi:guide
       position="132.29167,105.83333"
       orientation="400,0"
       id="guide840" />
    <sodipodi:guide
       position="132.29167,0"
       orientation="0,-500"
       id="guide842" />
    <sodipodi:guide
       position="0,0"
       orientation="-400,0"
       id="guide844" />
    <sodipodi:guide
       position="-35.71875,79.563988"
       orientation="0,-1"
       id="guide2755" />
    <sodipodi:guide
       position="-43.467263,53.105653"
       orientation="0,-1"
       id="guide2757" />
    <sodipodi:guide
       position="-45.357144,26.647321"
       orientation="0,-1"
       id="guide2759" />
    <sodipodi:guide
       position="26.458333,111.91875"
       orientation="1,0"
       id="guide2761" />
    <sodipodi:guide
       position="52.916666,69.85"
       orientation="1,0"
       id="guide2763" />
    <sodipodi:guide
       position="79.24271,98.028122"
       orientation="1,0"
       id="guide2795" />
    <sodipodi:guide
       position="105.83334,109.00833"
       orientation="1,0"
       id="guide2805" />
  </sodipodi:namedview>
  <metadata
     id="metadata5">
    <rdf:RDF>
      <cc:Work
         rdf:about="">
        <dc:format>image/svg+xml</dc:format>
        <dc:type
           rdf:resource="http://purl.org/dc/dcmitype/StillImage" />
        <dc:title></dc:title>
      </cc:Work>
    </rdf:RDF>
  </metadata>
  <g
     inkscape:label="Layer 1"
     inkscape:groupmode="layer"
     id="layer1"
     sodipodi:insensitive="true">
    <rect
       style="fill:#343333;fill-opacity:1;fill-rule:evenodd;stroke-width:0.227892"
       id="rect11"
       width="131.9137"
       height="105.26637"
       x="0.18898788"
       y="0.18898828" />
  </g>
  <g
     inkscape:groupmode="layer"
     id="layer2"
     inkscape:label="Layer 2">
    <path
       style="fill:none;stroke:#ffffff;stroke-width:0.529167;stroke-linecap:butt;stroke-linejoin:miter;stroke-miterlimit:4;stroke-dasharray:none;stroke-opacity:1"
       d="m 3.9259179,85.761073 h 3.62513 L 11.694051,81.61807 v 4.143003 l 4.207738,-4.207737 v 4.078269 h 4.337206"
       id="path836" />
    <path
       style="fill:none;stroke:#ffffff;stroke-width:0.529167;stroke-linecap:butt;stroke-linejoin:miter;stroke-miterlimit:4;stroke-dasharray:none;stroke-opacity:1"
       d="m 5.1275493,23.67358 h 3.6251296 l -0.01466,-4.143077 4.1576641,7.4e-5 v 4.143003 h 4.302232 l 0.04725,-4.098218 h 4.289959"
       id="path2783"
       sodipodi:nodetypes="cccccccc" />
    <path
       style="fill:none;stroke:#ffffff;stroke-width:0.529167;stroke-linecap:butt;stroke-linejoin:miter;stroke-miterlimit:4;stroke-dasharray:none;stroke-opacity:1"
       d="m 32.071433,85.669954 c 2.715304,-0.0548 1.540728,-4.025445 3.765612,-4.025445 2.224883,0 1.12918,3.986698 3.418262,3.986698 2.055222,0 1.602172,-3.939926 3.321964,-3.939926 1.719792,0 1.377714,3.878481 3.160327,3.878481"
       id="path2785"
       sodipodi:nodetypes="csssc" />
    <g
       id="g2999"
       transform="translate(-0.62761834,-0.85732514)">
      <path
         style="fill:none;stroke:#ffffff;stroke-width:0.264583;stroke-linecap:butt;stroke-linejoin:miter;stroke-miterlimit:4;stroke-dasharray:none;stroke-opacity:1"
         d="m 33.588863,26.269345 c 2.715304,-0.0548 1.540728,-4.025445 3.765612,-4.025445 2.224882,0 1.129179,3.986698 3.418261,3.986698 2.055222,0 1.602173,-3.939926 3.321965,-3.939926 1.719791,0 1.377713,3.878481 3.160327,3.878481"
         id="path2787"
         sodipodi:nodetypes="csssc" />
      <path
         style="fill:none;stroke:#ffffff;stroke-width:0.257718;stroke-linecap:butt;stroke-linejoin:miter;stroke-miterlimit:4;stroke-dasharray:none;stroke-opacity:1"
         d="m 33.939959,24.866506 c 2.575801,-0.05481 1.46157,-4.026097 3.572147,-4.026097 2.110576,0 1.071167,3.987343 3.242644,3.987343 1.949631,0 1.519858,-3.940563 3.151292,-3.940563 1.631435,0 1.306932,3.879108 2.997961,3.879108"
         id="path2789"
         sodipodi:nodetypes="csssc" />
      <path
         style="fill:none;stroke:#ffffff;stroke-width:0.266832;stroke-linecap:butt;stroke-linejoin:miter;stroke-miterlimit:4;stroke-dasharray:none;stroke-opacity:1"
         d="m 33.471799,23.603213 c 2.761818,-0.0548 1.56712,-4.025209 3.830117,-4.025209 2.262996,0 1.148524,3.986463 3.476818,3.986463 2.090428,0 1.629618,-3.939693 3.378869,-3.939693 1.749253,0 1.401315,3.878252 3.214465,3.878252"
         id="path2791"
         sodipodi:nodetypes="csssc" />
      <path
         style="fill:none;stroke:#ffffff;stroke-width:0.249227;stroke-linecap:butt;stroke-linejoin:miter;stroke-miterlimit:4;stroke-dasharray:none;stroke-opacity:1"
         d="m 34.361219,22.668597 c 2.408421,-0.05482 1.366594,-4.026863 3.340023,-4.026863 1.973427,0 1.001561,3.988101 3.031931,3.988101 1.822941,0 1.421095,-3.941312 2.946516,-3.941312 1.525422,0 1.222005,3.879846 2.803148,3.879846"
         id="path2793"
         sodipodi:nodetypes="csssc" />
    </g>
    <path
       style="fill:none;stroke:#ffffff;stroke-width:0.529167;stroke-linecap:butt;stroke-linejoin:miter;stroke-miterlimit:4;stroke-dasharray:none;stroke-opacity:1"
       d="m 59.505637,24.730866 6.984823,-6.191071 h 6.688701"
       id="path2797"
       sodipodi:nodetypes="ccc" />
    <path
       style="fill:none;stroke:#ffffff;stroke-width:0.529167;stroke-linecap:butt;stroke-linejoin:miter;stroke-miterlimit:4;stroke-dasharray:none;stroke-opacity:1"
       d="m 58.450253,81.198964 h 7.475242 c 0,0 0.608319,5.008752 7.062878,4.915208"
       id="path2799"
       sodipodi:nodetypes="ccc" />
    <path
       style="fill:none;stroke:#ffffff;stroke-width:0.529167;stroke-linecap:butt;stroke-linejoin:miter;stroke-miterlimit:4;stroke-dasharray:none;stroke-opacity:1"
       d="M 86.504021,85.932391 92.30377,81.30268 v 4.723255 l 6.173928,-4.723255 v 4.536165"
       id="path2801" />
    <path
       style="fill:none;stroke:#ffffff;stroke-width:0.529167;stroke-linecap:butt;stroke-linejoin:miter;stroke-miterlimit:4;stroke-dasharray:none;stroke-opacity:1"
       d="m 86.697321,23.86966 1.245576,-1.443145 1.204628,-0.119707 1.013852,-2.287156 1.219393,0.02729 1.1163,-0.80699 v 4.723255 l 1.446703,-1.049012 1.144667,-0.658297 0.720409,-1.160338 1.03343,-0.328721 0.686149,-1.095566 1.14257,-0.431321 v 4.536165"
       id="path2803"
       sodipodi:nodetypes="cccccccccccccc" />
    <path
       style="fill:none;stroke:#ffffff;stroke-width:0.529167;stroke-linecap:butt;stroke-linejoin:miter;stroke-miterlimit:4;stroke-dasharray:none;stroke-opacity:1"
       d="m 113.32341,85.932391 5.79975,-4.629711 v 4.723255 l 6.17393,-4.723255 v 4.536165"
       id="path2807" />
    <path
       style="fill:none;stroke:#ffffff;stroke-width:0.529167;stroke-linecap:butt;stroke-linejoin:miter;stroke-miterlimit:4;stroke-dasharray:none;stroke-opacity:1;filter:url(#filter2991)"
       d="m 113.19112,23.870122 5.79975,-4.629711 v 4.723255 l 6.17393,-4.723255 v 4.536165"
       id="path2809" />
  </g>
</svg>
